<svg xmlns="http://www.w3.org/2000/svg" viewBox="0 0 96 96" role="img" aria-labelledby="title desc">
  <title id="title">Agent Memory Hub octopus logo</title>
  <desc id="desc">A friendly octopus mascot with eight rounded arms and a small memory-node mark, representing shared context for AI agents.</desc>
  <defs>
    <filter id="shadow" x="-30%" y="-30%" width="160%" height="170%">
      <feDropShadow dx="0" dy="7" stdDeviation="7" flood-color="#b85443" flood-opacity="0.17"/>
    </filter>
    <radialGradient id="body-grad" cx="34%" cy="25%" r="76%">
      <stop offset="0%" stop-color="#ffd1aa"/>
      <stop offset="42%" stop-color="#ff9573"/>
      <stop offset="78%" stop-color="#e66a53"/>
      <stop offset="100%" stop-color="#a9453c"/>
    </radialGradient>
    <linearGradient id="arm-grad" x1="30" y1="56" x2="57" y2="83" gradientUnits="userSpaceOnUse">
      <stop offset="0%" stop-color="#ffb08b"/>
      <stop offset="52%" stop-color="#ed775c"/>
      <stop offset="100%" stop-color="#b24a40"/>
    </linearGradient>
    <linearGradient id="arm-inner-grad" x1="34" y1="59" x2="64" y2="81" gradientUnits="userSpaceOnUse">
      <stop offset="0%" stop-color="#ffa27d"/>
      <stop offset="58%" stop-color="#df674f"/>
      <stop offset="100%" stop-color="#9d4039"/>
    </linearGradient>
    <linearGradient id="arm-back-grad" x1="20" y1="55" x2="76" y2="74" gradientUnits="userSpaceOnUse">
      <stop offset="0%" stop-color="#dd6a52"/>
      <stop offset="52%" stop-color="#c85847"/>
      <stop offset="100%" stop-color="#8d382f"/>
    </linearGradient>
    <linearGradient id="belly-grad" x1="48" y1="57" x2="48" y2="72" gradientUnits="userSpaceOnUse">
      <stop offset="0%" stop-color="#fff0e6" stop-opacity="0.05"/>
      <stop offset="100%" stop-color="#7e3029" stop-opacity="0.6"/>
    </linearGradient>
    <linearGradient id="bottom-shade" x1="48" y1="52" x2="48" y2="71" gradientUnits="userSpaceOnUse">
      <stop offset="0%" stop-color="#b64d40" stop-opacity="0"/>
      <stop offset="100%" stop-color="#702720" stop-opacity="0.58"/>
    </linearGradient>
  </defs>
  <g filter="url(#shadow)">
    <path fill="#fffdf8" stroke="#9dd7d1" stroke-width="1.4" d="M48 7.2c22.5 0 38.4 16.1 38.4 38.1 0 24.3-17 41.9-38.4 41.9S9.6 69.6 9.6 45.3C9.6 23.3 25.5 7.2 48 7.2Z"/>
    <circle cx="48" cy="51" r="30.5" fill="#b9efe5" opacity="0.24"/>
    <ellipse cx="48" cy="75.6" rx="25.5" ry="8.5" fill="#7d352a" opacity="0.14"/>

    <path fill="none" stroke="#6f302c" stroke-width="9.2" stroke-linecap="round" stroke-linejoin="round" d="M29.2 57.4C20 58.7 17.6 66.4 23.8 71.8"/>
    <path fill="none" stroke="#6f302c" stroke-width="9.2" stroke-linecap="round" stroke-linejoin="round" d="M36.2 61.8C30.5 66.6 31.1 74.8 38 77"/>
    <path fill="none" stroke="#6f302c" stroke-width="9.2" stroke-linecap="round" stroke-linejoin="round" d="M59.8 61.8C65.5 66.6 64.9 74.8 58 77"/>
    <path fill="none" stroke="#6f302c" stroke-width="9.2" stroke-linecap="round" stroke-linejoin="round" d="M66.8 57.4C76 58.7 78.4 66.4 72.2 71.8"/>
    <path fill="none" stroke="url(#arm-back-grad)" stroke-width="5.9" stroke-linecap="round" stroke-linejoin="round" d="M29.2 57.4C20 58.7 17.6 66.4 23.8 71.8"/>
    <path fill="none" stroke="url(#arm-inner-grad)" stroke-width="5.9" stroke-linecap="round" stroke-linejoin="round" d="M36.2 61.8C30.5 66.6 31.1 74.8 38 77"/>
    <path fill="none" stroke="url(#arm-inner-grad)" stroke-width="5.9" stroke-linecap="round" stroke-linejoin="round" d="M59.8 61.8C65.5 66.6 64.9 74.8 58 77"/>
    <path fill="none" stroke="url(#arm-back-grad)" stroke-width="5.9" stroke-linecap="round" stroke-linejoin="round" d="M66.8 57.4C76 58.7 78.4 66.4 72.2 71.8"/>

    <path fill="url(#body-grad)" stroke="#6f302c" stroke-width="2.15" d="M48 13.9c-16.5 0-28.7 11.7-28.7 27.4C19.3 57.7 30.6 67 48 67s28.7-9.3 28.7-25.7C76.7 25.6 64.5 13.9 48 13.9Z"/>
    <path fill="url(#belly-grad)" opacity="0.34" d="M29.2 58.2C33.6 63.7 39.8 67 48 67s14.4-3.3 18.8-8.8C64 66 57.8 70.5 48 70.5S32 66 29.2 58.2Z"/>
    <path fill="url(#bottom-shade)" opacity="0.42" d="M24.4 52.7C29.7 62 37.7 66.8 48 66.8s18.3-4.8 23.6-14.1C69.4 64.5 60.7 72 48 72s-21.4-7.5-23.6-19.3Z"/>
    <path fill="none" stroke="#6f302c" stroke-width="8.4" stroke-linecap="round" stroke-linejoin="round" d="M39.4 64.5C32.4 70.6 34 79.4 42.1 82.6"/>
    <path fill="none" stroke="#6f302c" stroke-width="8.4" stroke-linecap="round" stroke-linejoin="round" d="M45.1 66.4C41.4 73.4 42.6 82.4 46.4 84.2"/>
    <path fill="none" stroke="#6f302c" stroke-width="8.4" stroke-linecap="round" stroke-linejoin="round" d="M50.9 66.4C54.6 73.4 53.4 82.4 49.6 84.2"/>
    <path fill="none" stroke="#6f302c" stroke-width="8.4" stroke-linecap="round" stroke-linejoin="round" d="M56.6 64.5C63.6 70.6 62 79.4 53.9 82.6"/>
    <path fill="none" stroke="url(#arm-inner-grad)" stroke-width="5.2" stroke-linecap="round" stroke-linejoin="round" d="M39.4 64.5C32.4 70.6 34 79.4 42.1 82.6"/>
    <path fill="none" stroke="url(#arm-grad)" stroke-width="5.2" stroke-linecap="round" stroke-linejoin="round" d="M45.1 66.4C41.4 73.4 42.6 82.4 46.4 84.2"/>
    <path fill="none" stroke="url(#arm-grad)" stroke-width="5.2" stroke-linecap="round" stroke-linejoin="round" d="M50.9 66.4C54.6 73.4 53.4 82.4 49.6 84.2"/>
    <path fill="none" stroke="url(#arm-inner-grad)" stroke-width="5.2" stroke-linecap="round" stroke-linejoin="round" d="M56.6 64.5C63.6 70.6 62 79.4 53.9 82.6"/>
    <path fill="#ecfeff" opacity="0.62" d="M32.5 23.5c-4.8 3.3-7.4 8.1-7.4 13.7 0 2.4.7 3.8 1.9 4 1.2.1 1.8-1.1 2.3-3.4 1-4.7 3.7-8 8.3-10.5 2-1.1 2.5-2.3 1.7-3.1-.8-.9-3.5-.9-6.8-.7Z"/>
    <ellipse cx="37" cy="30.2" rx="10.5" ry="16" transform="rotate(39 37 30.2)" fill="#fff" opacity="0.22"/>
    <path fill="none" stroke="#ffe4d5" stroke-width="2.2" stroke-linecap="round" opacity="0.34" d="M65 25.5c5 4.1 7.5 9.8 7.5 16.9"/>

    <path fill="none" stroke="#e6fffb" stroke-width="2.2" stroke-linecap="round" stroke-linejoin="round" opacity="0.92" d="M48 22.7v7.6M41.6 34.7 48 30.3l6.4 4.4"/>
    <circle cx="48" cy="22.7" r="2.6" fill="#f7fffd" stroke="#e6fffb" stroke-width="1.4"/>
    <circle cx="41.6" cy="34.7" r="2" fill="#f7fffd" stroke="#e6fffb" stroke-width="1.4"/>
    <circle cx="54.4" cy="34.7" r="2" fill="#f7fffd" stroke="#e6fffb" stroke-width="1.4"/>

    <circle cx="39.1" cy="46.8" r="4.1" fill="#4a2726"/>
    <circle cx="56.9" cy="46.8" r="4.1" fill="#4a2726"/>
    <circle cx="37.8" cy="45.3" r="1.1" fill="#fff"/>
    <circle cx="55.6" cy="45.3" r="1.1" fill="#fff"/>
    <ellipse cx="31.6" cy="53.2" rx="2.7" ry="1.8" fill="#f7a6c9" opacity="0.82"/>
    <ellipse cx="64.4" cy="53.2" rx="2.7" ry="1.8" fill="#f7a6c9" opacity="0.82"/>
    <path fill="none" stroke="#6f302c" stroke-width="3" stroke-linecap="round" stroke-linejoin="round" d="M43.1 56.2c2.5 2.4 7.3 2.4 9.8 0"/>
    <path fill="none" stroke="#ffe0d1" stroke-width="2.2" stroke-linecap="round" stroke-linejoin="round" opacity="0.78" d="M22.1 66.2c-.6-1.7.1-3.3 1.8-4.5M36.1 72.4c-1.1-1.5-.9-3.3.5-5M45.5 75.6c-.3 2-.1 3.8.6 5.4M50.5 75.6c.3 2 .1 3.8-.6 5.4M59.9 72.4c1.1-1.5.9-3.3-.5-5M73.9 66.2c.6-1.7-.1-3.3-1.8-4.5"/>
  </g>
</svg>
