<svg xmlns="http://www.w3.org/2000/svg" width="1380" height="780" viewBox="0 0 1380 780" role="img" aria-labelledby="title desc" style="max-width:100%;height:auto;">
  <title id="title">检索、压缩与注入门禁</title>
  <desc id="desc">检索、压缩与注入门禁</desc>
  <defs>

    <linearGradient id="qoderPageBg" x1="0" y1="0" x2="1" y2="1">
      <stop offset="0%" stop-color="#fffdfb"/>
      <stop offset="48%" stop-color="#fbfaf8"/>
      <stop offset="100%" stop-color="#f7fbff"/>
    </linearGradient>
    <linearGradient id="qoderSheetBg" x1="0" y1="0" x2="1" y2="0">
      <stop offset="0%" stop-color="#fff3fa"/>
      <stop offset="45%" stop-color="#fbfdff"/>
      <stop offset="100%" stop-color="#f0f8e9"/>
    </linearGradient>
    <filter id="qoderSheetShadow" x="-8%" y="-8%" width="116%" height="116%">
      <feDropShadow dx="0" dy="26" stdDeviation="30" flood-color="#2a231c" flood-opacity="0.085"/>
    </filter>

    <marker id="arrow" viewBox="0 0 10 10" refX="8.5" refY="5" markerWidth="8" markerHeight="8" orient="auto-start-reverse">
      <path d="M0 0 L10 5 L0 10 z" fill="#57606a"/>
    </marker>
    <filter id="paper" x="-8%" y="-8%" width="116%" height="116%">
      <feTurbulence type="fractalNoise" baseFrequency="0.78" numOctaves="2" seed="11" result="noise"/>
      <feColorMatrix type="saturate" values="0"/>
      <feComponentTransfer>
        <feFuncA type="table" tableValues="0 0.035"/>
      </feComponentTransfer>
      <feBlend in="SourceGraphic" mode="multiply"/>
    </filter>
    <filter id="softShadow" x="-15%" y="-15%" width="130%" height="130%">
      <feDropShadow dx="0" dy="8" stdDeviation="12" flood-color="#1f2328" flood-opacity="0.08"/>
    </filter>
    <style>
      .bg { fill: url(#qoderPageBg); }
      .sheet { fill: url(#qoderSheetBg); filter: url(#qoderSheetShadow); }
      .ink { fill: #24292f; }
      .muted { fill: #57606a; }
      .title { font-family: -apple-system, BlinkMacSystemFont, "Segoe UI", Arial, "PingFang SC", "Microsoft YaHei", sans-serif; font-size: 34px; font-weight: 850; fill: #24292f; }
      .subtitle { font-family: -apple-system, BlinkMacSystemFont, "Segoe UI", Arial, "PingFang SC", "Microsoft YaHei", sans-serif; font-size: 17px; fill: #57606a; }
      .section { font-family: -apple-system, BlinkMacSystemFont, "Segoe UI", Arial, "PingFang SC", "Microsoft YaHei", sans-serif; font-size: 17px; font-weight: 800; fill: #57606a; text-transform: uppercase; }
      .card-title { font-family: -apple-system, BlinkMacSystemFont, "Segoe UI", Arial, "PingFang SC", "Microsoft YaHei", sans-serif; font-size: 20px; font-weight: 820; fill: #24292f; }
      .card-line { font-family: -apple-system, BlinkMacSystemFont, "Segoe UI", Arial, "PingFang SC", "Microsoft YaHei", sans-serif; font-size: 15px; fill: #24292f; }
      .small { font-family: -apple-system, BlinkMacSystemFont, "Segoe UI", Arial, "PingFang SC", "Microsoft YaHei", sans-serif; font-size: 13px; fill: #57606a; }
      .tiny { font-family: -apple-system, BlinkMacSystemFont, "Segoe UI", Arial, "PingFang SC", "Microsoft YaHei", sans-serif; font-size: 10px; fill: #6e7781; }
      .num { font-family: -apple-system, BlinkMacSystemFont, "Segoe UI", Arial, "PingFang SC", "Microsoft YaHei", sans-serif; font-size: 22px; font-weight: 900; }
      .mono { font-family: ui-monospace, SFMono-Regular, Menlo, Consolas, "Liberation Mono", monospace; font-size: 13px; fill: #24292f; }
      .mono-small { font-family: ui-monospace, SFMono-Regular, Menlo, Consolas, "Liberation Mono", monospace; font-size: 12px; fill: #57606a; }
      .panel { fill: #ffffff; stroke: #d8dee4; stroke-width: 1.4; filter: url(#softShadow); }
      .card { stroke-width: 1.8; filter: url(#softShadow); }
      .thin-card { stroke-width: 1.2; }
      .arrow { fill: none; stroke: #57606a; stroke-width: 2.1; stroke-linecap: round; stroke-linejoin: round; marker-end: url(#arrow); }
      .soft-arrow { fill: none; stroke: #8c959f; stroke-width: 1.6; stroke-linecap: round; stroke-linejoin: round; stroke-dasharray: 6 7; marker-end: url(#arrow); }
      .flow-line { stroke-dasharray: 14 10; animation: flowDash 1.8s linear infinite; }
      .planned-line { stroke-dasharray: 8 8; }
      .flow-dot { fill: #1f6f78; filter: url(#softShadow); }
      .breath { animation: breath 2.8s ease-in-out infinite; transform-box: fill-box; transform-origin: center; }
      .breath-slow { animation: breath 4.2s ease-in-out infinite; transform-box: fill-box; transform-origin: center; }
      .blink { animation: blink 1.7s ease-in-out infinite; }
      .rail { fill: none; stroke: #d0d7de; stroke-width: 1.3; stroke-dasharray: 5 8; }
      .branch { fill: none; stroke: #d0d7de; stroke-width: 1.3; stroke-linecap: round; stroke-linejoin: round; }
      .icon { fill: none; stroke-width: 3.5; stroke-linecap: round; stroke-linejoin: round; }
      @keyframes flowDash {
        to { stroke-dashoffset: -24; }
      }
      @keyframes breath {
        0%, 100% { opacity: 0.88; transform: scale(1); }
        50% { opacity: 1; transform: scale(1.035); }
      }
      @keyframes blink {
        0%, 100% { opacity: 0.42; }
        50% { opacity: 1; }
      }
    </style>
  </defs>
  <rect class="bg" width="1380" height="780"/>
  <rect x="28" y="28" width="1324" height="724" rx="36" fill="#ffffff" opacity="0.62"/>
  <rect class="sheet" x="20" y="20" width="1340" height="740" rx="34" stroke="#ffffff" stroke-opacity="0.86" stroke-width="1.2"/>
  <text class="title" x="70" y="76">检索、压缩与注入门禁</text>
  <text class="subtitle" x="72" y="105">不是“搜到就塞进上下文”：候选要可解释，正文要按需装载，压缩要可逆，注入要过防火墙。</text>
  <g class="breath">
    <animate attributeName="opacity" values="0.92;1;0.92" dur="2.8s" repeatCount="indefinite"/>
    <rect class="card" x="50" y="150" width="240" height="142" rx="16" fill="#e7fbf8" stroke="#95dcd6" stroke-width="1.8"/>
    <circle cx="94" cy="194" r="27" fill="#ffffff" opacity="0.62"/>
    <path class="icon" stroke="#1f6f78" d="M81 193c0-10 28-10 28 0v11c0 10-28 10-28 0zM89 192h1M101 192h1M92 203h7M95 179v7"/>
  <text class="card-title" x="134" y="184">用户问题</text>
  <text class="card-line" x="134" y="210">prompt/API</text>
  <text class="card-line" x="134" y="229">project/cwd</text>
  <text class="card-line" x="134" y="248">q_signal</text>

  </g>
  <g class="breath">
    <animate attributeName="opacity" values="0.92;1;0.92" dur="2.8s" repeatCount="indefinite"/>
    <rect class="card" x="370" y="150" width="240" height="142" rx="16" fill="#f6f8fa" stroke="#c9d1d9" stroke-width="1.8"/>
    <circle cx="414" cy="194" r="27" fill="#ffffff" opacity="0.62"/>
    <path class="icon" stroke="#57606a" d="M414 178l17 7v11c0 13-7 22-17 27-10-5-17-14-17-27V185zM406 200l7 7 13-15"/>
  <text class="card-title" x="454" y="184">元数据过滤</text>
  <text class="card-line" x="454" y="210">type/proj/tags</text>
  <text class="card-line" x="454" y="229">tenant/since</text>
  <text class="card-line" x="454" y="248">allowed_ids</text>

  </g>
  <g class="breath">
    <animate attributeName="opacity" values="0.92;1;0.92" dur="2.8s" repeatCount="indefinite"/>
    <rect class="card" x="690" y="96" width="240" height="142" rx="16" fill="#edf9ef" stroke="#a8d8b5" stroke-width="1.8"/>
    <circle cx="734" cy="140" r="27" fill="#ffffff" opacity="0.62"/>
    <path class="icon" stroke="#2f7d32" d="M719 127h15v15H719zM739 127h15v15H739zM726 142v12h20M746 154h9"/>
  <text class="card-title" x="774" y="130">全文召回</text>
  <text class="card-line" x="774" y="156">BM25 / FTS</text>
  <text class="card-line" x="774" y="175">title + locator</text>
  <text class="card-line" x="774" y="194">overview</text>

  </g>
  <g class="breath">
    <animate attributeName="opacity" values="0.92;1;0.92" dur="2.8s" repeatCount="indefinite"/>
    <rect class="card" x="690" y="284" width="240" height="142" rx="16" fill="#edf6ff" stroke="#a8cff2" stroke-width="1.8"/>
    <circle cx="734" cy="328" r="27" fill="#ffffff" opacity="0.62"/>
    <path class="icon" stroke="#0969da" d="M719 315h15v15H719zM739 315h15v15H739zM726 330v12h20M746 342h9"/>
  <text class="card-title" x="774" y="318">向量召回</text>
  <text class="card-line" x="774" y="344">locator+ovw</text>
  <text class="card-line" x="774" y="363">BM25 fallback</text>
  <text class="card-line" x="774" y="382">resource sidecar</text>

  </g>
  <g class="breath">
    <animate attributeName="opacity" values="0.92;1;0.92" dur="2.8s" repeatCount="indefinite"/>
    <rect class="card" x="1030" y="190" width="260" height="142" rx="16" fill="#fff1df" stroke="#efb770" stroke-width="1.8"/>
    <circle cx="1074" cy="234" r="27" fill="#ffffff" opacity="0.62"/>
    <path class="icon" stroke="#bc6c00" d="M1059 221h15v15H1059zM1079 221h15v15H1079zM1066 236v12h20M1086 248h9"/>
  <text class="card-title" x="1114" y="224">RRF + rerank</text>
  <text class="card-line" x="1114" y="250">RRF fusion</text>
  <text class="card-line" x="1114" y="269">optional rerank</text>
  <text class="card-line" x="1114" y="288">trace</text>

  </g>
  <g class="breath">
    <animate attributeName="opacity" values="0.92;1;0.92" dur="2.8s" repeatCount="indefinite"/>
    <rect class="card" x="50" y="500" width="240" height="142" rx="16" fill="#fff7cc" stroke="#e7c34e" stroke-width="1.8"/>
    <circle cx="94" cy="544" r="27" fill="#ffffff" opacity="0.62"/>
    <path class="icon" stroke="#8a6200" d="M94 528l17 7v11c0 13-7 22-17 27-10-5-17-14-17-27V535zM86 550l7 7 13-15"/>
  <text class="card-title" x="134" y="534">治理排序</text>
  <text class="card-line" x="134" y="560">conf x decay</text>
  <text class="card-line" x="134" y="579">feedback</text>
  <text class="card-line" x="134" y="598">runtime/stale</text>

  </g>
  <g class="breath">
    <animate attributeName="opacity" values="0.92;1;0.92" dur="2.8s" repeatCount="indefinite"/>
    <rect class="card" x="370" y="500" width="240" height="142" rx="16" fill="#fff1eb" stroke="#efbda9" stroke-width="1.8"/>
    <circle cx="414" cy="544" r="27" fill="#ffffff" opacity="0.62"/>
    <path class="icon" stroke="#d1242f" d="M399 533h34v24H399zM408 565h16M416 557v8M405 546h7l4-7 5 13 4-6h6"/>
  <text class="card-title" x="454" y="534">关联扩展</text>
  <text class="card-line" x="454" y="560">MMR</text>
  <text class="card-line" x="454" y="579">Hopfield</text>
  <text class="card-line" x="454" y="598">refs_graph</text>

  </g>
  <g class="breath">
    <animate attributeName="opacity" values="0.92;1;0.92" dur="2.8s" repeatCount="indefinite"/>
    <rect class="card" x="690" y="500" width="240" height="142" rx="16" fill="#f5efff" stroke="#cfb9f3" stroke-width="1.8"/>
    <circle cx="734" cy="544" r="27" fill="#ffffff" opacity="0.62"/>
    <path class="icon" stroke="#8250df" d="M719 531h28v18H719zM725 558h26M739 549v9M728 537h15M728 543h9"/>
  <text class="card-title" x="774" y="534">分层装载</text>
  <text class="card-line" x="774" y="560">firewall</text>
  <text class="card-line" x="774" y="579">loc/ovw/detail</text>
  <text class="card-line" x="774" y="598">detail_uri/CCR</text>

  </g>
  <g class="breath">
    <animate attributeName="opacity" values="0.92;1;0.92" dur="2.8s" repeatCount="indefinite"/>
    <rect class="card" x="1030" y="500" width="260" height="142" rx="16" fill="#f1efff" stroke="#c0b0ee" stroke-width="1.8"/>
    <circle cx="1074" cy="544" r="27" fill="#ffffff" opacity="0.62"/>
    <path class="icon" stroke="#6639ba" d="M1064 533v10M1084 533v10M1061 543h26v8c0 8-5 14-13 14s-13-6-13-14zM1074 565v-9M1087 551h8"/>
  <text class="card-title" x="1114" y="534">注入出口</text>
  <text class="card-line" x="1114" y="560">context_pack</text>
  <text class="card-line" x="1114" y="579">hooks 或 MCP</text>
  <text class="card-line" x="1114" y="598">feedback ledger</text>

  </g>
  <path class="arrow flow-line" d="M290 221 L370 221">
    <animate attributeName="stroke-dashoffset" values="0;-24" dur="1.8s" repeatCount="indefinite"/>
  </path>
  <path class="arrow flow-line" d="M610 205 C 650 205, 650 167, 690 167">
    <animate attributeName="stroke-dashoffset" values="0;-24" dur="1.8s" repeatCount="indefinite"/>
  </path>
  <path class="arrow flow-line" d="M610 237 C 650 237, 650 355, 690 355">
    <animate attributeName="stroke-dashoffset" values="0;-24" dur="1.8s" repeatCount="indefinite"/>
  </path>
  <path class="arrow flow-line" d="M930 167 C 980 167, 980 261, 1030 261">
    <animate attributeName="stroke-dashoffset" values="0;-24" dur="1.8s" repeatCount="indefinite"/>
  </path>
  <path class="arrow flow-line" d="M930 355 C 980 355, 980 261, 1030 261">
    <animate attributeName="stroke-dashoffset" values="0;-24" dur="1.8s" repeatCount="indefinite"/>
  </path>
  <path class="arrow flow-line" d="M1160 332 C 1657 332, -332 500, 165 500">
    <animate attributeName="stroke-dashoffset" values="0;-24" dur="1.8s" repeatCount="indefinite"/>
  </path>
  <path class="soft-arrow flow-line planned-line" d="M290 571 L370 571">
    <animate attributeName="stroke-dashoffset" values="0;-24" dur="2.2s" repeatCount="indefinite"/>
  </path>
  <path class="arrow flow-line" d="M610 571 L690 571">
    <animate attributeName="stroke-dashoffset" values="0;-24" dur="1.8s" repeatCount="indefinite"/>
  </path>
  <path class="arrow flow-line" d="M930 571 L1030 571">
    <animate attributeName="stroke-dashoffset" values="0;-24" dur="1.8s" repeatCount="indefinite"/>
  </path>
  <circle class="flow-dot" r="7">
    <animateMotion dur="4.8s" repeatCount="indefinite" path="M50 221 L370 221 C 520 221, 590 167, 690 167 C 860 167, 950 261, 1030 261"/>
  </circle>
  <g>
    <rect x="195" y="658" width="980" height="88" rx="18" fill="#f6f8fa" stroke="#c9d1d9" stroke-width="1.5"/>
    <text class="card-title" x="219" y="692" fill="#57606a">评分骨架</text>
  <text class="card-line" x="219" y="720">RRF -&gt; S_effective(score) -&gt; ContextFirewall(include/demote/exclude)；compression/ML 仍走 gate/advisory。</text>
  </g>
</svg>
