<svg xmlns="http://www.w3.org/2000/svg" width="1280" height="760" viewBox="0 0 1280 760" role="img" aria-labelledby="title desc" style="max-width:100%;height:auto;">
  <title id="title">检索评分管线</title>
  <desc id="desc">检索评分管线</desc>
  <defs>

    <linearGradient id="qoderPageBg" x1="0" y1="0" x2="1" y2="1">
      <stop offset="0%" stop-color="#fffdfb"/>
      <stop offset="48%" stop-color="#fbfaf8"/>
      <stop offset="100%" stop-color="#f7fbff"/>
    </linearGradient>
    <linearGradient id="qoderSheetBg" x1="0" y1="0" x2="1" y2="0">
      <stop offset="0%" stop-color="#fff3fa"/>
      <stop offset="45%" stop-color="#fbfdff"/>
      <stop offset="100%" stop-color="#f0f8e9"/>
    </linearGradient>
    <filter id="qoderSheetShadow" x="-8%" y="-8%" width="116%" height="116%">
      <feDropShadow dx="0" dy="26" stdDeviation="30" flood-color="#2a231c" flood-opacity="0.085"/>
    </filter>

    <marker id="arrow" viewBox="0 0 10 10" refX="8.5" refY="5" markerWidth="8" markerHeight="8" orient="auto-start-reverse">
      <path d="M0 0 L10 5 L0 10 z" fill="#57606a"/>
    </marker>
    <filter id="paper" x="-8%" y="-8%" width="116%" height="116%">
      <feTurbulence type="fractalNoise" baseFrequency="0.78" numOctaves="2" seed="11" result="noise"/>
      <feColorMatrix type="saturate" values="0"/>
      <feComponentTransfer>
        <feFuncA type="table" tableValues="0 0.035"/>
      </feComponentTransfer>
      <feBlend in="SourceGraphic" mode="multiply"/>
    </filter>
    <filter id="softShadow" x="-15%" y="-15%" width="130%" height="130%">
      <feDropShadow dx="0" dy="8" stdDeviation="12" flood-color="#1f2328" flood-opacity="0.08"/>
    </filter>
    <style>
      .bg { fill: url(#qoderPageBg); }
      .sheet { fill: url(#qoderSheetBg); filter: url(#qoderSheetShadow); }
      .ink { fill: #24292f; }
      .muted { fill: #57606a; }
      .title { font-family: -apple-system, BlinkMacSystemFont, "Segoe UI", Arial, "PingFang SC", "Microsoft YaHei", sans-serif; font-size: 34px; font-weight: 850; fill: #24292f; }
      .subtitle { font-family: -apple-system, BlinkMacSystemFont, "Segoe UI", Arial, "PingFang SC", "Microsoft YaHei", sans-serif; font-size: 17px; fill: #57606a; }
      .section { font-family: -apple-system, BlinkMacSystemFont, "Segoe UI", Arial, "PingFang SC", "Microsoft YaHei", sans-serif; font-size: 17px; font-weight: 800; fill: #57606a; text-transform: uppercase; }
      .card-title { font-family: -apple-system, BlinkMacSystemFont, "Segoe UI", Arial, "PingFang SC", "Microsoft YaHei", sans-serif; font-size: 20px; font-weight: 820; fill: #24292f; }
      .card-line { font-family: -apple-system, BlinkMacSystemFont, "Segoe UI", Arial, "PingFang SC", "Microsoft YaHei", sans-serif; font-size: 15px; fill: #24292f; }
      .small { font-family: -apple-system, BlinkMacSystemFont, "Segoe UI", Arial, "PingFang SC", "Microsoft YaHei", sans-serif; font-size: 13px; fill: #57606a; }
      .tiny { font-family: -apple-system, BlinkMacSystemFont, "Segoe UI", Arial, "PingFang SC", "Microsoft YaHei", sans-serif; font-size: 10px; fill: #6e7781; }
      .num { font-family: -apple-system, BlinkMacSystemFont, "Segoe UI", Arial, "PingFang SC", "Microsoft YaHei", sans-serif; font-size: 22px; font-weight: 900; }
      .mono { font-family: ui-monospace, SFMono-Regular, Menlo, Consolas, "Liberation Mono", monospace; font-size: 13px; fill: #24292f; }
      .mono-small { font-family: ui-monospace, SFMono-Regular, Menlo, Consolas, "Liberation Mono", monospace; font-size: 12px; fill: #57606a; }
      .panel { fill: #ffffff; stroke: #d8dee4; stroke-width: 1.4; filter: url(#softShadow); }
      .card { stroke-width: 1.8; filter: url(#softShadow); }
      .thin-card { stroke-width: 1.2; }
      .arrow { fill: none; stroke: #57606a; stroke-width: 2.1; stroke-linecap: round; stroke-linejoin: round; marker-end: url(#arrow); }
      .soft-arrow { fill: none; stroke: #8c959f; stroke-width: 1.6; stroke-linecap: round; stroke-linejoin: round; stroke-dasharray: 6 7; marker-end: url(#arrow); }
      .flow-line { stroke-dasharray: 14 10; animation: flowDash 1.8s linear infinite; }
      .planned-line { stroke-dasharray: 8 8; }
      .flow-dot { fill: #1f6f78; filter: url(#softShadow); }
      .breath { animation: breath 2.8s ease-in-out infinite; transform-box: fill-box; transform-origin: center; }
      .breath-slow { animation: breath 4.2s ease-in-out infinite; transform-box: fill-box; transform-origin: center; }
      .blink { animation: blink 1.7s ease-in-out infinite; }
      .rail { fill: none; stroke: #d0d7de; stroke-width: 1.3; stroke-dasharray: 5 8; }
      .branch { fill: none; stroke: #d0d7de; stroke-width: 1.3; stroke-linecap: round; stroke-linejoin: round; }
      .icon { fill: none; stroke-width: 3.5; stroke-linecap: round; stroke-linejoin: round; }
      @keyframes flowDash {
        to { stroke-dashoffset: -24; }
      }
      @keyframes breath {
        0%, 100% { opacity: 0.88; transform: scale(1); }
        50% { opacity: 1; transform: scale(1.035); }
      }
      @keyframes blink {
        0%, 100% { opacity: 0.42; }
        50% { opacity: 1; }
      }
    </style>
  </defs>
  <rect class="bg" width="1280" height="760"/>
  <rect x="28" y="28" width="1224" height="704" rx="36" fill="#ffffff" opacity="0.62"/>
  <rect class="sheet" x="20" y="20" width="1240" height="720" rx="34" stroke="#ffffff" stroke-opacity="0.86" stroke-width="1.2"/>
  <text class="title" x="70" y="76">检索评分管线</text>
  <text class="subtitle" x="72" y="105">从 Markdown/raw evidence 到派生索引，再到 BM25/vector/RRF/decay/graph/context loading。</text>
  <g>
    <rect class="card" x="70" y="170" width="320" height="152" rx="18" fill="#edf6ff" stroke="#a8cff2"/>
    <circle cx="112" cy="212" r="26" fill="#ffffff" opacity="0.58"/>
    <path class="icon" stroke="#0969da" d="M98 201h31v27H98zM104 207h19M104 215h19M104 223h12"/>
  <text class="card-title" x="148" y="204">事实源</text>
  <text class="card-line" x="148" y="231">items/*.md</text>
  <text class="card-line" x="148" y="250">raw conversation sidecar</text>
  <text class="card-line" x="148" y="269">resources / extractions</text>
  </g>
  <g>
    <rect class="card" x="480" y="170" width="320" height="152" rx="18" fill="#edf9ef" stroke="#a8d8b5"/>
    <circle cx="522" cy="212" r="26" fill="#ffffff" opacity="0.58"/>
    <path class="icon" stroke="#2f7d32" d="M507 203c0-9 30-9 30 0v20c0 9-30 9-30 0zM507 203c0 9 30 9 30 0M507 216c0 9 30 9 30 0"/>
  <text class="card-title" x="558" y="204">派生索引</text>
  <text class="card-line" x="558" y="231">FTS: title + locator +</text>
  <text class="card-line" x="558" y="250">overview</text>
  <text class="card-line" x="558" y="269">Vector: locator + overview</text>
  <text class="card-line" x="558" y="288">refs_graph / metadata</text>
  </g>
  <g>
    <rect class="card" x="890" y="170" width="320" height="152" rx="18" fill="#e7fbf8" stroke="#95dcd6"/>
    <circle cx="932" cy="212" r="26" fill="#ffffff" opacity="0.58"/>
    <path class="icon" stroke="#1f6f78" d="M919 211c0-10 28-10 28 0v11c0 10-28 10-28 0zM927 210h1M939 210h1M930 221h7M933 197v7"/>
  <text class="card-title" x="968" y="204">查询信号</text>
  <text class="card-line" x="968" y="231">prompt</text>
  <text class="card-line" x="968" y="250">project / agent / time</text>
  <text class="card-line" x="968" y="269">scope filters</text>
  </g>
  <g>
    <rect class="card" x="70" y="430" width="320" height="152" rx="18" fill="#fff1df" stroke="#efb770"/>
    <circle cx="112" cy="472" r="26" fill="#ffffff" opacity="0.58"/>
    <path class="icon" stroke="#bc6c00" d="M97 459h15v15H97zM117 459h15v15H117zM104 474v12h20M124 486h9"/>
  <text class="card-title" x="148" y="464">S0 并行召回</text>
  <text class="card-line" x="148" y="491">BM25 + Vector</text>
  <text class="card-line" x="148" y="510">RRF: w/(k + rank + 1)</text>
  <text class="card-line" x="148" y="529">metadata filters</text>
  </g>
  <g>
    <rect class="card" x="480" y="430" width="320" height="152" rx="18" fill="#fff7cc" stroke="#e7c34e"/>
    <circle cx="522" cy="472" r="26" fill="#ffffff" opacity="0.58"/>
    <path class="icon" stroke="#8a6200" d="M522 456l17 7v11c0 13-7 22-17 27-10-5-17-14-17-27V463zM514 478l7 7 13-15"/>
  <text class="card-title" x="558" y="464">S1 治理排序</text>
  <text class="card-line" x="558" y="491">confidence * retention</text>
  <text class="card-line" x="558" y="510">feedback / status / runtime</text>
  <text class="card-line" x="558" y="529">freshness guard</text>
  </g>
  <g>
    <rect class="card" x="890" y="430" width="320" height="152" rx="18" fill="#f5efff" stroke="#cfb9f3"/>
    <circle cx="932" cy="472" r="26" fill="#ffffff" opacity="0.58"/>
    <path class="icon" stroke="#8250df" d="M917 459h28v18H917zM923 486h26M937 477v9M926 465h15M926 471h9"/>
  <text class="card-title" x="968" y="464">注入前治理</text>
  <text class="card-line" x="968" y="491">graph / MMR</text>
  <text class="card-line" x="968" y="510">context firewall</text>
  <text class="card-line" x="968" y="529">locator / overview / detail</text>
  </g>
  <path class="arrow" d="M390 246 L480 246"/>
  <path class="arrow" d="M800 246 L890 246"/>
  <path class="arrow" d="M1050 322 C 1460 322, -180 430, 230 430"/>
  <path class="arrow" d="M390 506 L480 506"/>
  <path class="arrow" d="M800 506 L890 506"/>
  <g>
    <rect x="210" y="650" width="860" height="64" rx="18" fill="#f6f8fa" stroke="#c9d1d9" stroke-width="1.5"/>
    <text class="card-title" x="234" y="684" fill="#57606a">边界</text>
  <text class="card-line" x="234" y="712">原始对话和资源是 evidence sidecar；向量派生文本只使用 locator + overview，detail/body 按需读取。</text>
  </g>
</svg>
